HIERARCHY
ROOT Hips
{
	OFFSET 0.000000 0.000000 0.000000 
	CHANNELS 6 Xposition Yposition Zposition Zrotation Xrotation Yrotation
MOTION
Frames: 141
Frame Time: 0.016667
0.885222 95.624062 4.956919 0.000000 0.000000 0.000000 
0.899370 95.624062 5.061091 0.000000 0.000000 0.000000 
0.899370 95.624062 5.061091 0.000000 0.000000 0.000000 
1.138668 95.638123 5.073133 0.000000 0.000000 0.000000 
1.282224 95.707024 5.120514 0.000000 0.000000 0.000000 
1.326259 95.632133 5.128938 0.000000 0.000000 0.000000 
1.326259 95.632133 5.128938 0.000000 0.000000 0.000000 
1.194944 95.761642 5.192681 0.000000 0.000000 0.000000 
1.194944 95.761642 5.192682 0.000000 0.000000 0.000000 
1.142510 95.770958 5.169668 0.000000 0.000000 0.000000 
1.142510 95.770958 5.169668 0.000000 0.000000 0.000000 
1.142510 95.634766 5.169669 0.000000 0.000000 0.000000 
0.951482 95.684013 4.965395 0.000000 0.000000 0.000000 
0.827192 95.573959 4.837532 0.000000 0.000000 0.000000 
0.827044 95.573959 4.837476 0.000000 0.000000 0.000000 
0.827044 95.573959 4.837477 0.000000 0.000000 0.000000 
0.605501 95.722343 4.694348 0.000000 0.000000 0.000000 
0.580491 95.524979 4.695306 0.000000 0.000000 0.000000 
0.591415 95.528305 4.693585 0.000000 0.000000 0.000000 
0.731856 95.533043 4.798137 0.000000 0.000000 0.000000 
0.731856 95.533043 4.798137 0.000000 0.000000 0.000000 
0.828078 95.543495 4.927422 0.000000 0.000000 0.000000 
0.924828 95.550995 5.053196 0.000000 0.000000 0.000000 
0.924828 95.550995 5.053196 0.000000 0.000000 0.000000 
0.924828 95.550995 5.053196 0.000000 0.000000 0.000000 
1.275599 95.605064 5.499775 0.000000 0.000000 0.000000 
1.418771 95.742462 5.765891 0.000000 0.000000 0.000000 
1.461505 95.900261 6.050922 0.000000 0.000000 0.000000 
1.524198 95.622803 6.253898 0.000000 0.000000 0.000000 
1.563857 95.618240 6.248197 0.000000 0.000000 0.000000 
2.057962 95.646156 6.461256 0.000000 0.000000 0.000000 
2.495962 95.740318 6.783411 0.000000 0.000000 0.000000 
2.854235 95.808060 7.191157 0.000000 0.000000 0.000000 
3.262721 95.649971 7.531592 0.000000 0.000000 0.000000 
3.489893 95.827789 7.950656 0.000000 0.000000 0.000000 
3.589659 95.564232 8.046977 0.000000 0.000000 0.000000 
3.666373 95.564232 8.079615 0.000000 0.000000 0.000000 
3.641364 95.754707 8.074461 0.000000 0.000000 0.000000 
3.681202 95.542526 8.091409 0.000000 0.000000 0.000000 
3.833026 95.568970 8.318494 0.000000 0.000000 0.000000 
3.821468 95.578323 8.325086 0.000000 0.000000 0.000000 
3.821468 95.578323 8.325086 0.000000 0.000000 0.000000 
3.692511 95.610420 8.222715 0.000000 0.000000 0.000000 
3.692511 95.610420 8.222715 0.000000 0.000000 0.000000 
3.668439 95.543083 8.250645 0.000000 0.000000 0.000000 
3.667120 95.543083 8.246369 0.000000 0.000000 0.000000 
3.667120 95.543083 8.246368 0.000000 0.000000 0.000000 
3.857538 95.566788 8.507333 0.000000 0.000000 0.000000 
4.065218 95.581665 8.691693 0.000000 0.000000 0.000000 
4.155736 95.665108 8.806400 0.000000 0.000000 0.000000 
4.195710 95.581665 8.857058 0.000000 0.000000 0.000000 
4.195710 95.581665 8.857058 0.000000 0.000000 0.000000 
4.417921 95.630264 9.199516 0.000000 0.000000 0.000000 
4.408248 96.271225 9.533269 0.000000 0.000000 0.000000 
4.334616 96.891884 9.874493 0.000000 0.000000 0.000000 
4.260984 97.240150 10.215717 0.000000 0.000000 0.000000 
4.290323 97.067017 10.438589 0.000000 0.000000 0.000000 
4.139096 97.088142 10.828961 0.000000 0.000000 0.000000 
3.985701 96.822685 11.228620 0.000000 0.000000 0.000000 
3.828112 96.252457 11.567878 0.000000 0.000000 0.000000 
3.727989 95.581482 11.894933 0.000000 0.000000 0.000000 
3.610013 95.554138 11.843159 0.000000 0.000000 0.000000 
3.543067 95.554138 11.826605 0.000000 0.000000 0.000000 
3.543067 95.554138 11.826604 0.000000 0.000000 0.000000 
3.459382 95.797234 11.779524 0.000000 0.000000 0.000000 
3.413577 95.582535 11.757947 0.000000 0.000000 0.000000 
3.404816 95.582535 11.751641 0.000000 0.000000 0.000000 
3.404816 95.582535 11.751641 0.000000 0.000000 0.000000 
3.297982 95.562874 11.689886 0.000000 0.000000 0.000000 
3.259915 95.559311 11.612089 0.000000 0.000000 0.000000 
3.269935 95.558121 11.614462 0.000000 0.000000 0.000000 
3.269935 95.558121 11.614462 0.000000 0.000000 0.000000 
3.269935 95.558121 11.614462 0.000000 0.000000 0.000000 
3.405095 95.565987 11.679301 0.000000 0.000000 0.000000 
3.435471 95.631226 11.760537 0.000000 0.000000 0.000000 
3.504526 95.600410 11.878653 0.000000 0.000000 0.000000 
3.499014 95.716911 11.984004 0.000000 0.000000 0.000000 
3.616944 95.604836 12.117166 0.000000 0.000000 0.000000 
3.631112 95.700424 12.224558 0.000000 0.000000 0.000000 
3.722280 95.635796 12.206854 0.000000 0.000000 0.000000 
3.680350 95.768356 12.325425 0.000000 0.000000 0.000000 
3.632476 95.615433 12.447789 0.000000 0.000000 0.000000 
3.506172 95.564575 12.645887 0.000000 0.000000 0.000000 
3.367330 95.522568 12.545264 0.000000 0.000000 0.000000 
3.310809 95.522568 12.479526 0.000000 0.000000 0.000000 
3.310809 95.522568 12.479526 0.000000 0.000000 0.000000 
3.188136 95.766129 12.322655 0.000000 0.000000 0.000000 
3.152050 95.550163 12.302093 0.000000 0.000000 0.000000 
3.123237 95.551224 12.289848 0.000000 0.000000 0.000000 
2.951906 95.534218 12.161898 0.000000 0.000000 0.000000 
2.900615 95.534218 12.076571 0.000000 0.000000 0.000000 
2.717942 95.516747 11.885488 0.000000 0.000000 0.000000 
2.678855 95.510071 11.793514 0.000000 0.000000 0.000000 
2.688467 95.509621 11.786755 0.000000 0.000000 0.000000 
2.739210 95.509041 11.800738 0.000000 0.000000 0.000000 
2.739210 95.509041 11.800738 0.000000 0.000000 0.000000 
2.834954 95.516106 11.829388 0.000000 0.000000 0.000000 
2.922109 95.525185 11.925163 0.000000 0.000000 0.000000 
2.911828 95.576347 12.006318 0.000000 0.000000 0.000000 
2.909451 95.525185 12.025085 0.000000 0.000000 0.000000 
3.129103 95.578461 12.341164 0.000000 0.000000 0.000000 
3.208822 95.954842 12.723466 0.000000 0.000000 0.000000 
3.222284 96.335106 13.065095 0.000000 0.000000 0.000000 
3.235746 96.442978 13.406724 0.000000 0.000000 0.000000 
3.438025 95.809830 13.747664 0.000000 0.000000 0.000000 
3.407202 95.633980 13.944723 0.000000 0.000000 0.000000 
3.418940 95.633980 14.086691 0.000000 0.000000 0.000000 
3.418940 95.633980 14.086691 0.000000 0.000000 0.000000 
3.184862 96.166046 14.161121 0.000000 0.000000 0.000000 
3.184862 95.757462 14.161121 0.000000 0.000000 0.000000 
3.065827 95.494133 13.913957 0.000000 0.000000 0.000000 
3.059476 95.494133 13.904643 0.000000 0.000000 0.000000 
3.059476 95.494133 13.904643 0.000000 0.000000 0.000000 
2.690741 96.099808 13.430947 0.000000 0.000000 0.000000 
2.530401 95.920586 13.388968 0.000000 0.000000 0.000000 
2.416056 95.490135 13.352322 0.000000 0.000000 0.000000 
2.359545 95.483582 13.288401 0.000000 0.000000 0.000000 
2.370277 95.482124 13.251466 0.000000 0.000000 0.000000 
2.453742 95.487473 13.286248 0.000000 0.000000 0.000000 
2.499795 95.493866 13.347023 0.000000 0.000000 0.000000 
2.546174 95.498810 13.474638 0.000000 0.000000 0.000000 
2.546174 95.498810 13.474638 0.000000 0.000000 0.000000 
2.733638 95.504189 13.770609 0.000000 0.000000 0.000000 
2.857279 95.511070 13.865888 0.000000 0.000000 0.000000 
3.161768 95.547287 14.113037 0.000000 0.000000 0.000000 
3.251451 95.785149 14.237727 0.000000 0.000000 0.000000 
3.536315 95.617508 14.603876 0.000000 0.000000 0.000000 
3.626028 95.723091 14.991465 0.000000 0.000000 0.000000 
3.644865 96.133026 15.517950 0.000000 0.000000 0.000000 
3.663703 96.270576 16.044436 0.000000 0.000000 0.000000 
4.004660 95.685760 16.453690 0.000000 0.000000 0.000000 
4.004660 95.685760 16.453690 0.000000 0.000000 0.000000 
4.002290 95.735474 16.417936 0.000000 0.000000 0.000000 
4.002290 95.735474 16.417936 0.000000 0.000000 0.000000 
4.002290 95.735474 16.417936 0.000000 0.000000 0.000000 
3.760538 96.438622 16.643524 0.000000 0.000000 0.000000 
3.594357 96.346558 16.520481 0.000000 0.000000 0.000000 
3.594357 95.665573 16.520481 0.000000 0.000000 0.000000 
3.594357 95.665573 16.520481 0.000000 0.000000 0.000000 
3.594357 95.529381 16.520479 0.000000 0.000000 0.000000 
3.209373 96.134796 16.343307 0.000000 0.000000 0.000000 
